<svg width="250" height="268" viewBox="0 0 250 268" fill="none" xmlns="http://www.w3.org/2000/svg">
<rect width="250" height="195" transform="translate(0 37)" fill="black"/>
<path d="M60.7296 201C59.6843 201 58.7043 200.608 57.7896 199.824C57.0056 198.909 56.6136 197.929 56.6136 196.884C56.6136 196.231 56.6789 195.643 56.8096 195.12L102.87 69.288C103.262 67.8507 104.046 66.6093 105.222 65.564C106.528 64.388 108.292 63.8 110.514 63.8H139.522C141.743 63.8 143.442 64.388 144.618 65.564C145.924 66.6093 146.774 67.8507 147.166 69.288L193.03 195.12C193.291 195.643 193.422 196.231 193.422 196.884C193.422 197.929 192.964 198.909 192.05 199.824C191.266 200.608 190.286 201 189.11 201H165.002C163.042 201 161.539 200.543 160.494 199.628C159.579 198.583 158.991 197.668 158.73 196.884L151.086 176.892H98.7536L91.3056 196.884C91.0443 197.668 90.4563 198.583 89.5416 199.628C88.6269 200.543 87.0589 201 84.8376 201H60.7296ZM106.79 148.668H143.246L124.822 96.924L106.79 148.668Z" fill="white"/>
</svg>
